<svg xmlns="http://www.w3.org/2000/svg" xmlns:xlink="http://www.w3.org/1999/xlink" width="14" height="14" viewBox="0 0 14 14">
  <defs>
    <style>
      .cls-1 {
        fill: #fff;
        stroke: #707070;
      }

      .cls-2 {
        clip-path: url(#clip-path);
      }
    </style>
    <clipPath id="clip-path">
      <rect id="Rectangle_72" data-name="Rectangle 72" class="cls-1" width="14" height="14" transform="translate(234 1407)"/>
    </clipPath>
  </defs>
  <g id="Mask_Group_33" data-name="Mask Group 33" class="cls-2" transform="translate(-234 -1407)">
    <g id="megaphone" transform="translate(234 1407)">
      <g id="Group_1652" data-name="Group 1652">
        <path id="Path_1288" data-name="Path 1288" d="M12.291,3.764V1.511a.693.693,0,0,0-1.032-.6A16.111,16.111,0,0,1,4.538,2.926c-.018,0-2.17.011-2.17.011a1.058,1.058,0,0,0-1.049.932H.877A.878.878,0,0,0,0,4.746V6.673a.878.878,0,0,0,.877.877h.442a1.059,1.059,0,0,0,.623.842L3.514,12.73a.688.688,0,0,0,.645.451H5.736a.686.686,0,0,0,.645-.92L5.03,8.536a16.089,16.089,0,0,1,6.229,1.974.688.688,0,0,0,.69-.007.685.685,0,0,0,.341-.6V7.654a1.961,1.961,0,0,0,0-3.89ZM1.311,6.873H.877a.2.2,0,0,1-.2-.2V4.746a.2.2,0,0,1,.2-.2h.434Zm.9.9a.381.381,0,0,1-.225-.347V3.993h0a.381.381,0,0,1,.38-.38H4.209V7.806H2.344A.355.355,0,0,1,2.213,7.772Zm3.532,4.72a.008.008,0,0,1,0,.009.008.008,0,0,1-.008,0H4.158a.01.01,0,0,1-.009-.006L2.694,8.482h1.6Zm5.87-2.586a.012.012,0,0,1-.007.013.016.016,0,0,1-.018,0,16.767,16.767,0,0,0-6.7-2.077V3.576a16.772,16.772,0,0,0,6.7-2.077.016.016,0,0,1,.018,0,.012.012,0,0,1,.007.013Zm.676-2.937V4.449a1.286,1.286,0,0,1,0,2.521Z"/>
      </g>
    </g>
  </g>
</svg>
