<svg xmlns="http://www.w3.org/2000/svg" xmlns:xlink="http://www.w3.org/1999/xlink" width="15" height="15" viewBox="0 0 15 15">
  <defs>
    <clipPath id="clip-path">
      <rect id="Rectangle_100" data-name="Rectangle 100" width="15" height="15" transform="translate(440 1002)" fill="#fff" stroke="#707070" stroke-width="1"/>
    </clipPath>
  </defs>
  <g id="Mask_Group_29" data-name="Mask Group 29" transform="translate(-440 -1002)" clip-path="url(#clip-path)">
    <g id="crown" transform="translate(440 1004)">
      <path id="Path_1261" data-name="Path 1261" d="M12.283,9.144H2.717a.442.442,0,0,1-.365-.193C1.09,7.1.993,2.54.986,2.012c0-.021,0-.042,0-.062a.442.442,0,0,1,.441-.442h0a.442.442,0,0,1,.442.44s0,.029,0,.075a2.341,2.341,0,0,0,4.681-.074.442.442,0,0,1,.442-.442H8.007a.442.442,0,0,1,.442.442,2.341,2.341,0,0,0,4.681.07c0-.044,0-.069,0-.072a.442.442,0,0,1,.442-.44h0a.442.442,0,0,1,.441.442c0,.021,0,.042,0,.063-.007.528-.1,5.089-1.366,6.939a.442.442,0,0,1-.365.193Zm0,0" fill="#ef7f1a"/>
      <path id="Path_1262" data-name="Path 1262" d="M13.574,1.507h0a.442.442,0,0,0-.442.44s0,.028,0,.072a2.341,2.341,0,0,1-4.681-.07.442.442,0,0,0-.442-.442H7.5V9.144h4.783a.442.442,0,0,0,.365-.193C13.91,7.1,14.007,2.54,14.014,2.012c0-.021,0-.042,0-.062a.442.442,0,0,0-.441-.442Zm0,0" fill="#e05022"/>
      <path id="Path_1263" data-name="Path 1263" d="M7.5,0A1.427,1.427,0,1,0,8.927,1.427,1.429,1.429,0,0,0,7.5,0Zm0,0" fill="#e05022"/>
      <path id="Path_1264" data-name="Path 1264" d="M7.5,0V2.855A1.427,1.427,0,0,0,7.5,0Zm0,0" fill="#ef7f1a"/>
      <path id="Path_1265" data-name="Path 1265" d="M1.427,1.1A1.427,1.427,0,1,0,2.855,2.529,1.429,1.429,0,0,0,1.427,1.1Zm0,0" fill="#e05022"/>
      <path id="Path_1266" data-name="Path 1266" d="M13.573,1.1A1.427,1.427,0,1,0,15,2.529,1.429,1.429,0,0,0,13.573,1.1Zm0,0" fill="#ef7f1a"/>
      <path id="Path_1267" data-name="Path 1267" d="M12.283,9.593H2.717a.442.442,0,0,1-.442-.442V7.834H12.724V9.151a.442.442,0,0,1-.442.442Zm0,0" transform="translate(0 1)" fill="#e05022"/>
      <path id="Path_1268" data-name="Path 1268" d="M7.5,9.593h4.783a.442.442,0,0,0,.442-.442V7.834H7.5Zm0,0" transform="translate(0 1)" fill="#ef7f1a"/>
    </g>
  </g>
</svg>
