<svg xmlns="http://www.w3.org/2000/svg" xmlns:xlink="http://www.w3.org/1999/xlink" width="40.196" height="40.196" viewBox="0 0 40.196 40.196">
  <defs>
    <clipPath id="clip-path">
      <rect width="40.196" height="40.196" fill="none"/>
    </clipPath>
  </defs>
  <g id="Component_12_1" data-name="Component 12 – 1" transform="translate(0 0)" clip-path="url(#clip-path)">
    <circle id="XMLID_30_" cx="20.098" cy="20.098" r="20.098" fill="#dc4e41"/>
    <path id="Path_1229" data-name="Path 1229" d="M19.522,43.743a8.33,8.33,0,0,1,13.809-6.232c-.677.744-1.365,1.48-2.1,2.168a5.82,5.82,0,0,0-4.9-.958,5.234,5.234,0,1,0,3.525,9.848,4.579,4.579,0,0,0,2.691-3.137c-1.582-.032-3.165-.012-4.748-.056,0-.942-.008-1.879,0-2.821,2.639,0,5.282-.012,7.925.012A9.365,9.365,0,0,1,34.042,49.2a8.173,8.173,0,0,1-8.934,2.382A8.282,8.282,0,0,1,19.522,43.743Z" transform="translate(-12.525 -22.746)" fill="#fff"/>
    <path id="Path_1230" data-name="Path 1230" d="M74.828,48.668h2.354c0,.787.012,1.579.016,2.366.787.008,1.579.012,2.366.016v2.358L77.2,53.42c-.008.791-.012,1.579-.016,2.37-.787,0-1.575,0-2.358,0-.008-.791-.008-1.579-.016-2.366-.787-.008-1.579-.012-2.366-.016V51.049q1.181-.006,2.366-.016C74.812,50.247,74.82,49.455,74.828,48.668Z" transform="translate(-44.488 -31.232)" fill="#fff"/>
  </g>
</svg>
