<svg xmlns="http://www.w3.org/2000/svg" xmlns:xlink="http://www.w3.org/1999/xlink" width="15" height="15" viewBox="0 0 15 15">
  <defs>
    <clipPath id="clip-path">
      <rect id="Rectangle_69" data-name="Rectangle 69" width="15" height="15" transform="translate(189 49)" fill="#2b2a29" stroke="#707070" stroke-width="1"/>
    </clipPath>
  </defs>
  <g id="Mask_Group_15" data-name="Mask Group 15" transform="translate(-189 -49)" clip-path="url(#clip-path)">
    <g id="instagram-logo" transform="translate(189 49)">
      <path id="Path_84" data-name="Path 84" d="M10.86,0H4.139A4.144,4.144,0,0,0,0,4.139v6.721A4.144,4.144,0,0,0,4.139,15H10.86A4.144,4.144,0,0,0,15,10.861V4.139A4.144,4.144,0,0,0,10.86,0Zm2.809,10.861a2.812,2.812,0,0,1-2.809,2.809H4.139a2.812,2.812,0,0,1-2.808-2.809V4.139A2.812,2.812,0,0,1,4.139,1.331H10.86a2.812,2.812,0,0,1,2.809,2.809v6.721Z" fill="#2b2a29"/>
      <path id="Path_85" data-name="Path 85" d="M7.5,3.635A3.865,3.865,0,1,0,11.365,7.5,3.869,3.869,0,0,0,7.5,3.635Zm0,6.4A2.534,2.534,0,1,1,10.034,7.5,2.537,2.537,0,0,1,7.5,10.034Z" fill="#2b2a29"/>
      <path id="Path_86" data-name="Path 86" d="M11.527,2.507a.975.975,0,1,0,.69.286A.98.98,0,0,0,11.527,2.507Z" fill="#2b2a29"/>
    </g>
  </g>
</svg>
