<svg xmlns="http://www.w3.org/2000/svg" xmlns:xlink="http://www.w3.org/1999/xlink" width="14" height="14" viewBox="0 0 14 14">
  <defs>
    <style>
      .cls-1, .cls-3 {
        fill: #2b2a29;
      }

      .cls-1 {
        stroke: #707070;
      }

      .cls-2 {
        clip-path: url(#clip-path);
      }
    </style>
    <clipPath id="clip-path">
      <rect id="Rectangle_47" data-name="Rectangle 47" class="cls-1" width="14" height="14" transform="translate(207 1409)"/>
    </clipPath>
  </defs>
  <g id="Mask_Group_1" data-name="Mask Group 1" class="cls-2" transform="translate(-207 -1409)">
    <g id="like_1_" data-name="like (1)" transform="translate(207 1409.816)">
      <g id="Group_1044" data-name="Group 1044">
        <path id="Path_1218" data-name="Path 1218" class="cls-3" d="M12.979,1.914a3.526,3.526,0,0,0-5.63.405A5.368,5.368,0,0,0,7,2.884a5.363,5.363,0,0,0-.348-.565,3.526,3.526,0,0,0-5.63-.405A4.244,4.244,0,0,0,0,4.733a5.2,5.2,0,0,0,1.431,3.41,31.865,31.865,0,0,0,3.582,3.347c.542.462,1.1.939,1.7,1.461l.018.016a.41.41,0,0,0,.54,0l.018-.016c.6-.522,1.157-1,1.7-1.461a31.861,31.861,0,0,0,3.582-3.347A5.2,5.2,0,0,0,14,4.733,4.244,4.244,0,0,0,12.979,1.914ZM8.454,10.865c-.467.4-.948.808-1.454,1.248-.507-.441-.987-.85-1.455-1.248C2.7,8.44.82,6.839.82,4.733a3.425,3.425,0,0,1,.817-2.276A2.738,2.738,0,0,1,3.719,1.52,2.765,2.765,0,0,1,5.982,2.794,4.863,4.863,0,0,1,6.61,4.042a.41.41,0,0,0,.78,0,4.863,4.863,0,0,1,.628-1.249,2.707,2.707,0,0,1,4.345-.337,3.425,3.425,0,0,1,.817,2.276C13.18,6.839,11.3,8.44,8.454,10.865Z" transform="translate(0 -0.699)"/>
      </g>
    </g>
  </g>
</svg>
