<svg xmlns="http://www.w3.org/2000/svg" xmlns:xlink="http://www.w3.org/1999/xlink" width="15" height="15" viewBox="0 0 15 15">
  <defs>
    <clipPath id="clip-path">
      <rect id="Rectangle_103" data-name="Rectangle 103" width="15" height="15" transform="translate(175 1484)" fill="#fff" stroke="#707070" stroke-width="1"/>
    </clipPath>
  </defs>
  <g id="Mask_Group_32" data-name="Mask Group 32" transform="translate(-175 -1484)" clip-path="url(#clip-path)">
    <g id="photo-camera_2_" data-name="photo-camera (2)" transform="translate(175 1484)">
      <g id="Group_1651" data-name="Group 1651">
        <path id="Path_1285" data-name="Path 1285" d="M12.989,3.474l-1.574-.008L9.907,1.216A.5.5,0,0,0,9.494.985H5.431a.5.5,0,0,0-.4.223L3.47,3.466l-1.459.008A2.019,2.019,0,0,0,0,5.485v6.5a2.033,2.033,0,0,0,2.011,2.027H12.989A2.033,2.033,0,0,0,15,11.988v-6.5A2.019,2.019,0,0,0,12.989,3.474Zm1.022,8.514a1.041,1.041,0,0,1-1.022,1.038H2.011A1.041,1.041,0,0,1,.989,11.988v-6.5A1.027,1.027,0,0,1,2.011,4.463H3.734a.5.5,0,0,0,.4-.223L5.7,1.982H9.231l1.5,2.242a.509.509,0,0,0,.4.223l1.846.016A1.027,1.027,0,0,1,14,5.485v6.5h.008Z" fill="#fff"/>
        <path id="Path_1286" data-name="Path 1286" d="M7.541,4.661a3.5,3.5,0,1,0,3.5,3.5A3.505,3.505,0,0,0,7.541,4.661Zm0,6.016a2.514,2.514,0,1,1,2.514-2.514A2.518,2.518,0,0,1,7.541,10.677Z" fill="#fff"/>
        <circle id="Ellipse_13" data-name="Ellipse 13" cx="0.19" cy="0.19" r="0.19" transform="translate(12.041 5.922)" fill="#fff"/>
        <path id="Path_1287" data-name="Path 1287" d="M12.231,5.427a.684.684,0,1,0,.684.684A.682.682,0,0,0,12.231,5.427Zm0,.989a.3.3,0,0,1-.3-.3.3.3,0,1,1,.61,0A.3.3,0,0,1,12.231,6.416Z" fill="#fff"/>
      </g>
    </g>
  </g>
</svg>
