<svg xmlns="http://www.w3.org/2000/svg" xmlns:xlink="http://www.w3.org/1999/xlink" width="15" height="15" viewBox="0 0 15 15">
  <defs>
    <clipPath id="clip-path">
      <rect id="Rectangle_67" data-name="Rectangle 67" width="15" height="15" transform="translate(3 49)" fill="#2b2a29" stroke="#707070" stroke-width="1"/>
    </clipPath>
  </defs>
  <g id="Mask_Group_16" data-name="Mask Group 16" transform="translate(-3 -49)" clip-path="url(#clip-path)">
    <g id="telegram-logo" transform="translate(3 49)">
      <path id="Path_87" data-name="Path 87" d="M12.075,14.209a.594.594,0,0,1-.333-.1L7.97,11.548,5.948,13a.594.594,0,0,1-.921-.33L4.011,8.824.382,7.436A.594.594,0,0,1,.374,6.33L14.174.839a.594.594,0,0,1,.2-.046.619.619,0,0,1,.072,0,.592.592,0,0,1,.38.169l.031.033A.591.591,0,0,1,15,1.342a.6.6,0,0,1,0,.095.577.577,0,0,1-.01.068L12.659,13.726a.594.594,0,0,1-.583.483ZM8.3,10.338l3.36,2.279,1.812-9.51-6.546,6.3,1.358.921ZM5.5,9.831l.45,1.7.969-.7L5.655,9.977A.592.592,0,0,1,5.5,9.831ZM2.227,6.87l2.492.953a.594.594,0,0,1,.362.4l.316,1.2a.594.594,0,0,1,.179-.366l6.238-6Z" fill="#2b2a29"/>
    </g>
  </g>
</svg>
