<svg xmlns="http://www.w3.org/2000/svg" width="40.196" height="40.196" viewBox="0 0 40.196 40.196">
  <g id="twitter_1_" data-name="twitter (1)" transform="translate(-0.001)">
    <circle id="Ellipse_10" data-name="Ellipse 10" cx="20.098" cy="20.098" r="20.098" transform="translate(0.001 0)" fill="#55acee"/>
    <g id="Group_1518" data-name="Group 1518" transform="translate(8.994 12.191)">
      <path id="Path_1225" data-name="Path 1225" d="M48.519,36.281a9.585,9.585,0,0,1-2.759.756,4.817,4.817,0,0,0,2.113-2.657,9.617,9.617,0,0,1-3.051,1.165,4.808,4.808,0,0,0-8.186,4.382,13.637,13.637,0,0,1-9.9-5.02,4.809,4.809,0,0,0,1.486,6.414,4.77,4.77,0,0,1-2.176-.6c0,.02,0,.041,0,.061A4.807,4.807,0,0,0,29.9,45.49a4.823,4.823,0,0,1-2.169.083,4.809,4.809,0,0,0,4.488,3.336A9.7,9.7,0,0,1,25.1,50.9a13.662,13.662,0,0,0,21.032-11.51c0-.208,0-.416-.014-.621a9.742,9.742,0,0,0,2.4-2.486Z" transform="translate(-25.103 -34.028)" fill="#f1f2f2"/>
    </g>
  </g>
</svg>
