<svg xmlns="http://www.w3.org/2000/svg" xmlns:xlink="http://www.w3.org/1999/xlink" width="15" height="15" viewBox="0 0 15 15">
  <defs>
    <clipPath id="clip-path">
      <rect id="Rectangle_66" data-name="Rectangle 66" width="15" height="15" transform="translate(3 26)" fill="#2b2a29" stroke="#707070" stroke-width="1"/>
    </clipPath>
  </defs>
  <g id="Mask_Group_17" data-name="Mask Group 17" transform="translate(-3 -26)" clip-path="url(#clip-path)">
    <g id="worldwide" transform="translate(3 26)">
      <g id="Group_1502" data-name="Group 1502">
        <path id="Path_88" data-name="Path 88" d="M7.5,0A7.5,7.5,0,1,0,15,7.5,7.509,7.509,0,0,0,7.5,0ZM5.062,1.452A7.6,7.6,0,0,0,4.033,3.513a6.976,6.976,0,0,1-1.2-.559A6.545,6.545,0,0,1,5.062,1.452ZM2.194,3.712a7.906,7.906,0,0,0,1.572.742,13.1,13.1,0,0,0-.333,2.557H1A6.484,6.484,0,0,1,2.194,3.712Zm0,7.576A6.483,6.483,0,0,1,1,7.989H3.432a13.1,13.1,0,0,0,.333,2.557A7.909,7.909,0,0,0,2.194,11.288Zm.635.758a6.976,6.976,0,0,1,1.2-.559,7.6,7.6,0,0,0,1.028,2.061A6.544,6.544,0,0,1,2.829,12.046Zm4.182,1.885c-1.01-.371-1.691-1.7-2.04-2.722a10.77,10.77,0,0,1,2.04-.275Zm0-3.976A11.736,11.736,0,0,0,4.7,10.27a12.125,12.125,0,0,1-.294-2.28h2.6V9.955Zm0-2.945h-2.6A12.121,12.121,0,0,1,4.7,4.73a11.736,11.736,0,0,0,2.306.314Zm0-2.945a10.77,10.77,0,0,1-2.04-.275C5.32,2.768,6,1.439,7.011,1.069Zm5.8-.354a6.483,6.483,0,0,1,1.2,3.3H11.568a13.1,13.1,0,0,0-.333-2.557A7.908,7.908,0,0,0,12.806,3.712Zm-.635-.758a6.976,6.976,0,0,1-1.2.559A7.6,7.6,0,0,0,9.938,1.452,6.544,6.544,0,0,1,12.171,2.954ZM7.989,1.069c1.01.371,1.691,1.7,2.04,2.722a10.77,10.77,0,0,1-2.04.275v-3Zm0,3.976A11.736,11.736,0,0,0,10.3,4.73a12.125,12.125,0,0,1,.294,2.28h-2.6Zm0,2.941h2.6A12.155,12.155,0,0,1,10.3,10.27a11.736,11.736,0,0,0-2.306-.314Zm0,5.946v-3a10.77,10.77,0,0,1,2.04.275C9.68,12.232,9,13.561,7.989,13.931Zm1.949-.383a7.6,7.6,0,0,0,1.028-2.061,6.977,6.977,0,0,1,1.2.559A6.545,6.545,0,0,1,9.938,13.548Zm2.867-2.26a7.906,7.906,0,0,0-1.572-.742,13.129,13.129,0,0,0,.333-2.56H14A6.494,6.494,0,0,1,12.806,11.288Z" fill="#2b2a29"/>
      </g>
    </g>
  </g>
</svg>
